<?xml version="1.0" encoding="UTF-8"?>
<svg id="Layer_1" data-name="Layer 1" xmlns="http://www.w3.org/2000/svg" xmlns:xlink="http://www.w3.org/1999/xlink" viewBox="0 0 1000 1000">
  <defs>
    <style>
      .cls-1 {
        fill: url(#linear-gradient);
      }

      .cls-2 {
        fill: #fff;
      }
    </style>
    <linearGradient id="linear-gradient" x1="137.04" y1="500" x2="862.96" y2="500" gradientUnits="userSpaceOnUse">
      <stop offset="0" stop-color="#399e5a"/>
      <stop offset="1" stop-color="#5abcb9"/>
    </linearGradient>
  </defs>
  <path class="cls-1" d="M862.96,362.96c0,57.93-13.57,112.68-37.69,161.25-.02.02-.02.04-.04.05-.74,1.48-1.48,2.97-2.24,4.44-.04.04-.05.09-.07.12-.27.44-.55.9-.83,1.34l-34.67,54.45-252.19,396.06c-16.4,25.77-54.04,25.77-70.44,0l-252.19-396.06-34.67-54.45c-.28-.44-.57-.9-.83-1.34-.02-.04-.04-.09-.07-.12-.76-1.47-1.5-2.95-2.24-4.44-.02-.02-.02-.04-.04-.05-24.12-48.58-37.69-103.33-37.69-161.25C137.04,162.51,299.55,0,500,0s362.96,162.51,362.96,362.96Z"/>
  <path class="cls-2" d="M589.71,311.04l140.31,51.92-140.31,51.92c-17.51,6.48-31.31,20.28-37.79,37.79l-51.92,140.31-51.92-140.31c-6.48-17.51-20.28-31.31-37.79-37.79l-140.31-51.92,140.31-51.92c17.51-6.48,31.31-20.28,37.79-37.79l51.92-140.31,51.92,140.31c6.48,17.51,20.28,31.31,37.79,37.79Z"/>
</svg>